<svg id="visual" viewBox="0 0 960 540" width="960" height="540" xmlns="http://www.w3.org/2000/svg" xmlns:xlink="http://www.w3.org/1999/xlink" version="1.1"><path d="M0 306L32 308.7C64 311.3 128 316.7 192 296.8C256 277 320 232 384 222.7C448 213.3 512 239.7 576 234C640 228.3 704 190.7 768 191.7C832 192.7 896 232.3 928 252.2L960 272L960 0L928 0C896 0 832 0 768 0C704 0 640 0 576 0C512 0 448 0 384 0C320 0 256 0 192 0C128 0 64 0 32 0L0 0Z" fill="#95accf" stroke-linecap="round" stroke-linejoin="miter"></path></svg>